<svg xmlns="http://www.w3.org/2000/svg" viewBox="0 0 720 860" role="img" aria-labelledby="title desc">
  <title id="title">Academic crest illustration</title>
  <desc id="desc">A shield-shaped academic emblem with an open book, education symbols, and Omani-inspired geometry.</desc>
  <defs>
    <linearGradient id="gold" x1="0%" x2="0%" y1="0%" y2="100%">
      <stop offset="0%" stop-color="#f1cf63"/>
      <stop offset="46%" stop-color="#d9b23f"/>
      <stop offset="100%" stop-color="#bc911f"/>
    </linearGradient>
    <linearGradient id="cream" x1="0%" x2="0%" y1="0%" y2="100%">
      <stop offset="0%" stop-color="#fffdfa"/>
      <stop offset="100%" stop-color="#f2ece4"/>
    </linearGradient>
    <linearGradient id="steel" x1="0%" x2="0%" y1="0%" y2="100%">
      <stop offset="0%" stop-color="#f7f6f2"/>
      <stop offset="100%" stop-color="#d7d5cf"/>
    </linearGradient>
    <linearGradient id="green" x1="0%" x2="0%" y1="0%" y2="100%">
      <stop offset="0%" stop-color="#1ec96a"/>
      <stop offset="100%" stop-color="#129250"/>
    </linearGradient>
    <filter id="softShadow" x="-20%" y="-20%" width="140%" height="140%">
      <feDropShadow dx="0" dy="12" stdDeviation="12" flood-color="#000" flood-opacity="0.22"/>
    </filter>
    <filter id="innerGlow" x="-20%" y="-20%" width="140%" height="140%">
      <feDropShadow dx="0" dy="0" stdDeviation="6" flood-color="#f6df9a" flood-opacity="0.28"/>
    </filter>
    <path id="ribbonArc" d="M164 730 Q360 812 556 730"/>
  </defs>

  <g filter="url(#softShadow)">
    <path d="M360 18C451 74 601 78 662 166v380c0 148-108 250-302 300C166 796 58 694 58 546V166C119 78 269 74 360 18Z" fill="url(#gold)" stroke="#0d0d0d" stroke-width="14"/>
    <path d="M360 54C439 104 571 107 621 184v342c0 128-96 218-261 268C195 744 99 654 99 526V184c50-77 182-80 261-130Z" fill="none" stroke="#f7f4ee" stroke-width="30"/>
    <path d="M360 54C439 104 571 107 621 184v342c0 128-96 218-261 268C195 744 99 654 99 526V184c50-77 182-80 261-130Z" fill="none" stroke="#0d0d0d" stroke-width="8"/>

    <g fill="url(#cream)" stroke="#0d0d0d" stroke-width="6">
      <path d="M126 206c30-28 54-63 81-93h37v20h-18c-22 27-40 61-74 88v86l-26 10V206Z"/>
      <path d="M594 206c-30-28-54-63-81-93h-37v20h18c22 27 40 61 74 88v86l26 10V206Z"/>
      <path d="M132 474h40v104l-40 8-18-18V492l18-18Z"/>
      <path d="M548 474h40l18 18v76l-18 18-40-8V474Z"/>
      <path d="M132 646l34 12-8 48-38 4-18-28 14-26 16-10Z"/>
      <path d="M588 646l-34 12 8 48 38 4 18-28-14-26-16-10Z"/>
      <path d="M255 104l34-10 29 13-6 48-44 7-21-18 8-40Z"/>
      <path d="M465 104l-34-10-29 13 6 48 44 7 21-18-8-40Z"/>
      <path d="M360 80l42 18-6 44-36 20-36-20-6-44 42-18Z"/>
      <path d="M146 364l28 12v36l-28 12-28-12v-36l28-12Z"/>
      <path d="M574 364l28 12v36l-28 12-28-12v-36l28-12Z"/>
    </g>

    <circle cx="360" cy="434" r="186" fill="url(#gold)" stroke="#0d0d0d" stroke-width="8"/>
    <circle cx="360" cy="434" r="171" fill="none" stroke="#d2a628" stroke-width="6" opacity="0.8"/>

    <g transform="translate(360 186)" stroke="#0d0d0d" stroke-width="4" fill="none" opacity="0.92">
      <path d="M0-28 18-10 0 8-18-10Z" fill="#0d0d0d"/>
      <path d="M-30 0h60"/>
      <path d="M0-30V30"/>
      <path d="M-22-22 22 22"/>
      <path d="M22-22-22 22"/>
    </g>

    <g transform="translate(360 252)" filter="url(#innerGlow)">
      <path d="M-124-18c40-6 83-7 124 12 41-19 84-18 124-12l-8 126c-33 2-81 5-116 28-35-23-83-26-116-28l-8-126Z" fill="url(#cream)" stroke="#0d0d0d" stroke-width="6"/>
      <path d="M0-6v111" stroke="#0d0d0d" stroke-width="4" opacity="0.4"/>
      <path d="M-124-18c35-4 81 4 124 22" stroke="#0d0d0d" stroke-width="4" fill="none"/>
      <path d="M124-18c-35-4-81 4-124 22" stroke="#0d0d0d" stroke-width="4" fill="none"/>
      <text x="0" y="66" text-anchor="middle" font-size="62" font-weight="700" font-family="Tahoma, 'Segoe UI', sans-serif" fill="#0d0d0d">اقرأ</text>
    </g>

    <g stroke="#0d0d0d" stroke-width="5" fill="none" transform="translate(216 446)">
      <path d="M-34-28v-44h34l22 22v52h-56" opacity="0.92"/>
      <path d="M-12-72v60" opacity="0.92"/>
      <circle cx="-42" cy="-28" r="31"/>
      <circle cx="-12" cy="-18" r="31"/>
    </g>

    <g stroke="#0d0d0d" stroke-width="4.5" fill="none" transform="translate(198 542)">
      <ellipse cx="0" cy="0" rx="54" ry="20"/>
      <ellipse cx="0" cy="0" rx="24" ry="58" transform="rotate(32)"/>
      <ellipse cx="0" cy="0" rx="24" ry="58" transform="rotate(-32)"/>
      <circle cx="0" cy="0" r="8" fill="#0d0d0d"/>
      <circle cx="-46" cy="0" r="6" fill="#0d0d0d"/>
      <circle cx="46" cy="0" r="6" fill="#0d0d0d"/>
      <circle cx="-18" cy="-38" r="6" fill="#0d0d0d"/>
      <circle cx="18" cy="38" r="6" fill="#0d0d0d"/>
      <circle cx="18" cy="-38" r="6" fill="#0d0d0d"/>
      <circle cx="-18" cy="38" r="6" fill="#0d0d0d"/>
    </g>

    <g transform="translate(360 520)">
      <g stroke="#0d0d0d" stroke-width="6" stroke-linecap="round" stroke-linejoin="round">
        <path d="M-84 100C-40 54 2 14 74-92" fill="none"/>
        <path d="M84 100C40 54-2 14-74-92" fill="none"/>
      </g>
      <g fill="url(#steel)" stroke="#0d0d0d" stroke-width="4">
        <path d="M-92 110C-70 88-34 56 42-82l12 8C6 20-28 70-78 124Z"/>
        <path d="M92 110C70 88 34 56-42-82l-12 8C-6 20 28 70 78 124Z"/>
        <path d="M-8-4h16v52h-16Z"/>
        <path d="M-54-8h108v18H-54Z"/>
        <path d="M-36-72 0-110 36-72 22 10H-22Z" fill="#f0ede7"/>
      </g>
      <g fill="#0d0d0d">
        <circle cx="0" cy="-64" r="10"/>
        <rect x="-5" y="-108" width="10" height="26" rx="5"/>
      </g>
    </g>

    <g transform="translate(510 500)" fill="url(#green)" stroke="#0d0d0d" stroke-width="4">
      <path d="M0 114V-46" fill="none" stroke-width="5"/>
      <path d="M0-44 24-74 0-96-24-74Z"/>
      <path d="M0 0 24-28 0-50-24-28Z"/>
      <path d="M0 44 24 16 0-6-24 16Z"/>
      <path d="M0 88 24 60 0 38-24 60Z"/>
      <path d="M0 132 24 104 0 82-24 104Z"/>
    </g>

    <text x="360" y="652" text-anchor="middle" font-size="38" font-family="'Cascadia Code', 'Consolas', monospace" fill="#0d0d0d" letter-spacing="2">1986</text>

    <path d="M118 702Q360 794 602 702L582 760Q360 832 138 760Z" fill="url(#cream)" stroke="#0d0d0d" stroke-width="8"/>
    <text font-size="38" font-family="Tahoma, 'Segoe UI', sans-serif" fill="#0d0d0d" text-anchor="middle">
      <textPath href="#ribbonArc" startOffset="50%">جامعة السلطان قابوس</textPath>
    </text>
  </g>
</svg>
