<svg xmlns="http://www.w3.org/2000/svg" viewBox="0 0 256 256" role="img" aria-labelledby="title desc">
  <title id="title">Virtual Lab fallback logo</title>
  <desc id="desc">Fallback badge for the Virtual Lab for Computer Maintenance project.</desc>
  <defs>
    <linearGradient id="ring" x1="44" y1="36" x2="212" y2="220" gradientUnits="userSpaceOnUse">
      <stop offset="0" stop-color="#d9b25e"/>
      <stop offset="1" stop-color="#2c5d76"/>
    </linearGradient>
    <linearGradient id="panel" x1="76" y1="74" x2="180" y2="178" gradientUnits="userSpaceOnUse">
      <stop offset="0" stop-color="#f7f0de"/>
      <stop offset="1" stop-color="#dce8ee"/>
    </linearGradient>
  </defs>
  <path d="M128 26 198 58 230 128 198 198 128 230 58 198 26 128 58 58Z" fill="#0f171b" fill-opacity="0.16"/>
  <path d="M128 26 198 58 230 128 198 198 128 230 58 198 26 128 58 58Z" fill="none" stroke="url(#ring)" stroke-width="10" stroke-linejoin="round"/>
  <rect x="70" y="78" width="116" height="84" rx="18" fill="url(#panel)" stroke="#f3e5bc" stroke-width="6"/>
  <rect x="102" y="106" width="52" height="28" rx="8" fill="#223942"/>
  <path d="M92 102v10m18-10v10m18-10v10m18-10v10m18-10v10M92 144v10m18-10v10m18-10v10m18-10v10m18-10v10" stroke="#d9b25e" stroke-width="4" stroke-linecap="round"/>
  <path d="M58 128H34m188 0h-24M78 78 62 62m116 16 16-16M78 178l-16 16m116-16 16 16" stroke="#6ea4ba" stroke-width="6" stroke-linecap="round"/>
  <circle cx="34" cy="128" r="8" fill="#d9b25e"/>
  <circle cx="222" cy="128" r="8" fill="#d9b25e"/>
  <text x="128" y="206" text-anchor="middle" font-size="30" font-family="Tahoma, 'Segoe UI', sans-serif" font-weight="700" fill="#f1ece3">VL</text>
</svg>
